<?xml version="1.0" standalone="no"?>
<!DOCTYPE svg PUBLIC "-//W3C//DTD SVG 20010904//EN"
 "http://www.w3.org/TR/2001/REC-SVG-20010904/DTD/svg10.dtd">
<svg version="1.0" xmlns="http://www.w3.org/2000/svg"
 width="800.000000pt" height="800.000000pt" viewBox="0 0 800.000000 800.000000"
 preserveAspectRatio="xMidYMid meet">
<metadata>
Created by potrace 1.14, written by Peter Selinger 2001-2017
</metadata>
<g transform="translate(0.000000,800.000000) scale(0.100000,-0.100000)"
fill="#000000" stroke="none">
<path d="M897 7993 c-2 -5 -3 -276 -3 -603 l1 -595 3103 0 c1706 0 3103 2
3103 5 1 3 2 274 3 603 l1 597 -3102 0 c-1706 0 -3104 -3 -3106 -7z"/>
<path d="M894 5171 c0 -409 4 -601 11 -601 5 -1 116 -3 245 -5 372 -6 659 -22
943 -50 28 -3 70 -7 92 -9 22 -3 60 -7 85 -10 25 -3 63 -8 85 -11 60 -7 183
-24 245 -35 30 -5 71 -11 90 -14 19 -3 60 -10 90 -16 30 -6 66 -13 80 -15 14
-3 48 -9 75 -15 28 -6 61 -13 75 -15 48 -10 126 -27 230 -52 58 -14 114 -27
125 -30 31 -7 39 -9 60 -16 11 -3 31 -8 45 -11 24 -4 63 -15 280 -73 281 -75
513 -134 537 -138 12 -2 37 -8 55 -13 33 -10 191 -47 238 -56 14 -3 48 -10 75
-16 28 -6 84 -17 125 -25 41 -8 86 -17 100 -20 71 -15 109 -21 175 -30 17 -2
44 -7 60 -10 17 -4 42 -8 58 -11 15 -2 39 -6 55 -9 15 -2 52 -7 82 -11 30 -3
66 -8 80 -10 31 -6 68 -11 145 -19 33 -4 74 -8 90 -10 17 -2 57 -7 90 -10 33
-3 78 -7 100 -9 22 -3 80 -7 130 -11 49 -3 108 -8 130 -10 45 -5 210 -14 355
-20 52 -3 226 -7 385 -9 l290 -5 0 594 c0 326 -4 597 -8 601 -4 5 -92 9 -195
10 -371 5 -791 27 -987 51 -27 3 -69 6 -92 7 -24 1 -43 3 -43 6 0 3 -12 5 -27
6 -16 0 -55 4 -88 8 -33 5 -71 10 -85 11 -14 2 -38 5 -55 8 -16 3 -52 9 -80
12 -27 4 -61 9 -75 11 -14 3 -38 7 -55 9 -16 2 -41 7 -55 10 -14 2 -52 10 -85
16 -75 14 -94 17 -125 24 -14 4 -36 8 -50 11 -61 11 -229 50 -390 91 -96 24
-184 45 -195 48 -11 2 -20 4 -20 5 0 1 -7 3 -15 5 -8 1 -42 10 -75 19 -33 9
-67 18 -75 20 -8 2 -78 21 -155 41 -77 20 -156 40 -175 45 -19 4 -62 16 -95
25 -33 9 -69 18 -80 21 -22 4 -99 22 -160 36 -22 6 -40 10 -40 10 0 -1 -18 3
-40 9 -91 21 -323 69 -365 75 -25 3 -48 8 -51 10 -4 2 -24 6 -45 10 -22 3 -50
7 -64 10 -14 3 -38 7 -55 9 -16 3 -45 7 -62 10 -18 3 -50 8 -70 11 -21 3 -49
7 -63 9 -24 4 -98 14 -150 20 -25 3 -115 14 -160 20 -14 2 -63 6 -110 10 -47
4 -94 9 -105 11 -11 3 -56 7 -100 9 -44 3 -102 7 -130 10 -184 15 -398 24
-765 31 l-296 6 0 -601z"/>
<path d="M3788 3105 c-1 -1 -39 -6 -83 -10 -153 -14 -224 -26 -380 -60 -64
-14 -91 -19 -97 -20 -3 0 -10 -3 -14 -7 -4 -5 -16 -8 -26 -8 -25 0 -319 -98
-335 -112 -7 -6 -13 -8 -13 -5 0 11 -223 -95 -370 -175 -74 -41 -208 -127
-265 -170 -13 -10 -26 -18 -29 -18 -3 0 -14 -8 -25 -17 -10 -10 -34 -29 -52
-43 -169 -127 -400 -354 -529 -520 -19 -25 -41 -51 -48 -59 -17 -18 -195 -287
-218 -331 -10 -19 -24 -42 -30 -50 -6 -8 -15 -26 -19 -40 -4 -14 -11 -27 -15
-30 -24 -18 -167 -362 -207 -500 -13 -47 -27 -92 -30 -100 -7 -18 -7 -18 -28
-105 -9 -38 -19 -81 -21 -95 -3 -14 -9 -47 -14 -75 -13 -68 -26 -158 -34 -240
-3 -22 -8 -102 -12 -177 l-6 -138 601 0 c474 0 601 3 602 13 12 237 29 357 70
490 12 37 22 73 23 80 2 7 6 21 11 32 67 176 90 226 149 330 22 39 44 71 48
73 4 2 8 8 8 13 0 8 56 88 124 178 15 19 250 253 267 266 8 6 32 24 54 40 22
17 42 32 45 35 13 15 262 166 267 162 2 0 37 14 78 33 88 40 245 95 273 95 10
0 22 3 26 7 3 4 12 8 19 9 7 1 48 9 92 18 45 9 110 19 145 22 85 8 400 11 400
3 0 -3 19 -6 43 -7 51 -3 125 -17 232 -44 44 -11 85 -21 90 -23 12 -2 22 -6
130 -47 95 -36 279 -126 283 -139 2 -5 9 -9 15 -9 16 -1 150 -93 218 -150 119
-99 263 -251 347 -365 58 -80 176 -285 164 -285 -4 0 -2 -4 4 -8 23 -15 128
-304 138 -377 1 -11 5 -29 9 -40 3 -11 9 -36 11 -55 3 -19 8 -46 11 -60 8 -37
19 -163 24 -277 1 -10 128 -13 602 -13 l601 0 -6 137 c-3 76 -8 149 -10 163
-3 14 -7 52 -11 85 -10 92 -33 233 -40 244 -1 3 -6 22 -9 41 -7 40 -27 120
-51 200 -9 30 -18 62 -20 70 -2 8 -17 53 -34 100 -181 515 -525 1008 -941
1348 -25 20 -47 39 -50 42 -28 31 -228 169 -350 242 -104 63 -287 158 -293
152 -2 -2 -10 2 -17 11 -7 8 -23 15 -36 15 -13 0 -24 4 -24 9 0 5 -10 11 -22
14 -13 3 -64 21 -114 41 -113 44 -293 98 -407 121 -10 2 -26 6 -35 9 -9 3 -35
7 -56 11 -21 3 -48 8 -60 11 -12 2 -37 7 -56 9 -19 2 -53 6 -75 9 -22 3 -58 8
-80 11 -44 6 -521 15 -527 10z"/>
</g>
</svg>
