<svg width="228" height="120" viewBox="0 0 228 120" fill="none" xmlns="http://www.w3.org/2000/svg">
<path d="M81.1804 75.7142L78.7716 82.8378H79.7083L80.2848 81.1289H83.3113L83.8981 82.8378H84.8246L82.4157 75.7142H81.1804ZM80.5319 80.326L81.8084 76.3833L83.0848 80.326H80.5422H80.5319ZM85.9878 82.8481H86.8834V77.6392H85.9878V82.8481ZM85.9878 76.8054H86.8834V75.5083H85.9878V76.8054ZM92.3085 77.6392H91.382L90.1364 79.5539L88.9011 77.6392H87.9746L89.6526 80.223L87.9437 82.8481H88.8908L90.1467 80.9128L91.4129 82.8481H92.3497L90.6305 80.223L92.3188 77.6392H92.3085ZM97.5174 79.4922L97.61 79.348V79.2039V79.101V79.0701L97.5791 79.0495C97.5791 79.0495 97.435 78.926 97.2806 78.9157L97.1982 78.9363L95.7879 79.7495L95.7262 79.7907V76.7539L95.5615 76.5377L95.4276 76.4656H95.3968H95.3659L95.2321 76.5377L95.0776 76.7539V79.7907L95.0159 79.7495L93.6056 78.9363L93.5232 78.9157C93.3688 78.9157 93.2247 79.0495 93.2247 79.0495L93.1938 79.0701V79.101L93.1835 79.2039V79.348L93.2967 79.4922L94.707 80.3054L94.7688 80.3466L94.707 80.3877L93.2967 81.201L93.2041 81.3451V81.4892V81.5922V81.6231L93.235 81.6436C93.235 81.6436 93.3791 81.7672 93.5335 81.7775L93.6159 81.7569L95.0262 80.9436L95.0879 80.9025V82.6113L95.2423 82.8275L95.3762 82.8996H95.4071H95.4379L95.5615 82.8275L95.7159 82.6113V80.9025L95.7776 80.9436L97.188 81.7569L97.2703 81.7775C97.4247 81.7775 97.5688 81.6539 97.5688 81.6436L97.5997 81.6231V81.5922L97.61 81.4892V81.3451L97.4968 81.201L96.0865 80.3877L96.0247 80.3466L96.0865 80.3054L97.4968 79.4922H97.5174ZM104.291 75.7245L102.232 81.2319L100.173 75.7245H99.01L98.763 82.8481H99.6483L99.7821 77.073L101.604 81.9319H102.84L104.662 77.073L104.795 82.8481H105.681L105.434 75.7245H104.27H104.291ZM108.615 77.5259C108.059 77.5259 107.554 77.5877 107.07 77.7215L107.163 78.4421C107.565 78.3598 108.059 78.3083 108.563 78.3083C109.407 78.3083 109.695 78.5348 109.695 79.1833V79.9966H108.306C107.256 79.9966 106.71 80.3775 106.71 81.4584C106.71 82.3745 107.112 82.9613 108.09 82.9613C108.718 82.9613 109.315 82.7863 109.778 82.4672L109.829 82.8584H110.591V79.2348C110.591 78.123 110.097 77.5465 108.615 77.5465V77.5259ZM109.695 81.7569C109.294 82.0142 108.8 82.1892 108.347 82.1892C107.709 82.1892 107.606 81.9731 107.606 81.4378C107.606 80.9025 107.812 80.7481 108.368 80.7481H109.695V81.7672V81.7569ZM112.825 78.3701L112.773 77.6392H111.991V82.8481H112.887V79.2554C113.319 78.9569 113.885 78.5863 114.379 78.3598L114.266 77.5362C113.751 77.7524 113.216 78.0715 112.835 78.3701H112.825ZM116.912 79.8627C116.037 79.6466 116.026 79.5436 116.026 78.9671C116.026 78.4936 116.129 78.3083 116.901 78.3083C117.334 78.3083 117.91 78.3701 118.353 78.4627L118.415 77.7215C117.982 77.6083 117.447 77.5362 116.943 77.5362C115.573 77.5362 115.141 77.9789 115.141 78.9363C115.141 80.0172 115.254 80.2848 116.551 80.6039C117.601 80.8613 117.643 80.923 117.643 81.4789C117.643 82.0348 117.499 82.1892 116.685 82.1892C116.232 82.1892 115.646 82.1069 115.193 81.9731L115.079 82.6834C115.491 82.8481 116.201 82.9613 116.737 82.9613C118.229 82.9613 118.538 82.4672 118.538 81.4481C118.538 80.4289 118.425 80.2333 116.922 79.8525L116.912 79.8627ZM121.637 77.5362C120.082 77.5362 119.588 78.401 119.588 79.4819V81.0466C119.588 82.2201 120.113 82.9613 121.657 82.9613C122.306 82.9613 123.006 82.8378 123.5 82.6628L123.387 81.9422C122.821 82.0966 122.254 82.1892 121.74 82.1892C120.721 82.1892 120.494 81.8598 120.494 81.0363V80.5936H123.603V79.5024C123.603 78.4216 123.181 77.5362 121.647 77.5362H121.637ZM122.728 79.8422H120.494V79.4098C120.494 78.6789 120.793 78.2774 121.637 78.2774C122.481 78.2774 122.728 78.6892 122.728 79.4098V79.8422ZM124.777 82.8481H125.672V77.6392H124.777V82.8481ZM124.777 76.8054H125.672V75.5083H124.777V76.8054ZM127.391 82.8481H128.287V75.3848L127.391 75.5083V82.8481ZM130.006 82.8481H130.902V75.3848L130.006 75.5083V82.8481ZM134.031 77.5259C132.477 77.5259 131.993 78.3907 131.993 79.4716V81.0363C131.993 82.2098 132.518 82.951 134.062 82.951C134.71 82.951 135.41 82.8275 135.905 82.6525L135.791 81.9319C135.225 82.0863 134.659 82.179 134.144 82.179C133.125 82.179 132.899 81.8495 132.899 81.026V80.5833H136.008V79.4922C136.008 78.4113 135.585 77.5259 134.052 77.5259H134.031ZM135.122 79.8319H132.888V79.3995C132.888 78.6686 133.187 78.2671 134.031 78.2671C134.875 78.2671 135.122 78.6789 135.122 79.3995V79.8319ZM143.687 80.8098C143.687 81.6539 143.224 82.1069 142.133 82.1069C141.041 82.1069 140.578 81.6642 140.578 80.8098V75.8995H139.683V80.8613C139.683 81.9937 140.341 82.8996 142.133 82.8996C143.924 82.8996 144.583 81.9834 144.583 80.8613V75.8995H143.687V80.8098ZM149.184 77.6495C148.587 77.6495 147.712 77.9171 147.156 78.1848L147.074 77.7524H146.374V82.7966H147.249V78.9774C147.784 78.6995 148.567 78.473 148.937 78.473C149.256 78.473 149.431 78.6068 149.431 78.9363V82.7966H150.296V78.926C150.296 78.1539 150.008 77.6392 149.194 77.6392L149.184 77.6495ZM151.892 76.9495H152.767V75.6936H151.892V76.9495ZM151.892 82.8069H152.767V77.7627H151.892V82.8069ZM155.927 82.0863L154.537 77.7524H153.683L155.35 82.7966H156.514L158.181 77.7524H157.327L155.937 82.0863H155.927ZM160.806 77.6495C159.303 77.6495 158.83 78.4936 158.83 79.5333V81.0466C158.83 82.1892 159.345 82.8996 160.827 82.8996C161.455 82.8996 162.134 82.7863 162.608 82.6113L162.495 81.9113C161.939 82.0554 161.393 82.1481 160.899 82.1481C159.911 82.1481 159.695 81.8289 159.695 81.026V80.6039H162.701V79.5436C162.701 78.4936 162.299 77.6392 160.806 77.6392V77.6495ZM161.867 79.8833H159.695V79.4716C159.695 78.7613 159.983 78.3701 160.806 78.3701C161.63 78.3701 161.867 78.7613 161.867 79.4716V79.8833ZM164.883 78.4524L164.831 77.7524H164.08V82.7966H164.945V79.3172C165.367 79.0289 165.912 78.6789 166.386 78.4421L166.273 77.6495C165.768 77.8554 165.253 78.1642 164.883 78.4627V78.4524ZM168.846 79.8936C167.992 79.6877 167.981 79.5848 167.981 79.0289C167.981 78.576 168.084 78.401 168.836 78.401C169.248 78.401 169.804 78.4627 170.236 78.5451L170.298 77.8348C169.886 77.7215 169.351 77.6598 168.867 77.6598C167.539 77.6598 167.127 78.0818 167.127 79.0186C167.127 80.0686 167.24 80.326 168.496 80.6348C169.505 80.8819 169.557 80.9436 169.557 81.4789C169.557 82.0142 169.423 82.1687 168.63 82.1687C168.198 82.1687 167.621 82.0863 167.189 81.9628L167.076 82.6525C167.477 82.8069 168.167 82.9201 168.681 82.9201C170.123 82.9201 170.421 82.4466 170.421 81.4584C170.421 80.4701 170.308 80.2745 168.856 79.9142L168.846 79.8936ZM171.821 82.7966H172.696V77.7524H171.821V82.7966ZM171.821 76.9392H172.696V75.6833H171.821V76.9392ZM176.062 82.1687C175.599 82.1687 175.548 81.9834 175.548 81.6025V78.473H176.907L176.979 77.7524H175.548V76.3833L174.673 76.5068V77.7524H173.777V78.473H174.673V81.7466C174.673 82.5907 175.074 82.8996 175.929 82.8996C176.299 82.8996 176.67 82.8275 176.989 82.7142L176.876 82.0348C176.557 82.1172 176.299 82.1584 176.062 82.1584V82.1687ZM181.035 76.2392L180.664 75.6627C180.304 75.9612 179.758 76.3009 179.243 76.6098L179.593 77.1451C180.129 76.8671 180.561 76.5995 181.035 76.2392ZM179.892 77.6495C178.389 77.6495 177.915 78.4936 177.915 79.5333V81.0466C177.915 82.1892 178.42 82.8996 179.913 82.8996C180.54 82.8996 181.22 82.7863 181.693 82.6113L181.58 81.9216C181.024 82.0657 180.479 82.1584 179.985 82.1584C178.996 82.1584 178.78 81.8392 178.78 81.0363V80.6142H181.786V79.5539C181.786 78.5039 181.385 77.6495 179.892 77.6495ZM180.952 79.8936H178.79V79.4819C178.79 78.7716 179.079 78.3804 179.902 78.3804C180.726 78.3804 180.963 78.7716 180.963 79.4819V79.8936H180.952ZM83.4966 2.1412H78.7716V23.6459H83.4966V2.1412ZM90.8467 14.6075C90.8467 13.8458 90.9599 13.2281 91.1761 12.7546C91.3923 12.281 91.66 11.9207 91.9791 11.6737C92.2879 11.4266 92.607 11.2516 92.9467 11.159C93.2761 11.0663 93.5438 11.0251 93.7394 11.0251C94.4188 11.0251 94.9438 11.1384 95.2938 11.3751C95.6438 11.6016 95.8909 11.9104 96.0453 12.2913C96.1997 12.6722 96.2821 13.0943 96.3027 13.5369C96.3232 13.9899 96.3335 14.4428 96.3335 14.9061V23.6459H100.606V14.9678C100.606 14.484 100.637 14.0105 100.709 13.5369C100.781 13.0634 100.925 12.6413 101.131 12.2707C101.337 11.9001 101.635 11.6016 102.006 11.3648C102.376 11.1384 102.86 11.0148 103.467 11.0148C104.075 11.0148 104.548 11.1178 104.898 11.3134C105.248 11.5193 105.516 11.7869 105.701 12.1266C105.887 12.4663 105.99 12.8678 106.031 13.331C106.072 13.7943 106.092 14.2884 106.092 14.8031V23.6253H110.365V13.2281C110.365 12.2193 110.22 11.3648 109.943 10.6545C109.665 9.94424 109.273 9.36776 108.769 8.92511C108.265 8.48246 107.668 8.16334 106.967 7.95745C106.267 7.75157 105.506 7.65892 104.682 7.65892C103.601 7.65892 102.654 7.91627 101.862 8.44128C101.069 8.96629 100.441 9.56335 99.9777 10.2531C99.5556 9.28541 98.938 8.61628 98.1247 8.2354C97.3115 7.85451 96.4159 7.65892 95.4276 7.65892C94.4394 7.65892 93.4923 7.8751 92.6997 8.31775C91.907 8.7604 91.2276 9.37806 90.6614 10.181H90.5996V8.07069H86.5643V23.6459H90.8364V14.6075H90.8467ZM114.369 21.7723C115.048 22.4929 115.882 23.0488 116.871 23.44C117.859 23.8312 118.96 24.0268 120.185 24.0268C121.956 24.0268 123.459 23.6253 124.704 22.8223C125.95 22.0194 126.877 20.6811 127.474 18.8179H123.706C123.562 19.3017 123.181 19.7547 122.563 20.187C121.935 20.6194 121.194 20.8356 120.329 20.8356C119.125 20.8356 118.199 20.5267 117.56 19.8988C116.922 19.2811 116.562 18.2723 116.51 16.8826H127.741C127.824 15.6781 127.721 14.5252 127.443 13.4237C127.165 12.3222 126.702 11.334 126.074 10.4692C125.446 9.60453 124.632 8.91482 123.654 8.4104C122.666 7.89569 121.513 7.63833 120.185 7.63833C119.001 7.63833 117.921 7.84421 116.943 8.26628C115.965 8.68834 115.131 9.26482 114.431 9.99571C113.731 10.7266 113.185 11.6016 112.804 12.6002C112.423 13.609 112.228 14.6899 112.228 15.8531C112.228 17.0164 112.413 18.159 112.784 19.1679C113.154 20.1767 113.679 21.0311 114.369 21.762V21.7723ZM116.706 13.156C116.819 12.7752 117.004 12.4149 117.282 12.0751C117.55 11.7354 117.91 11.4472 118.363 11.2207C118.816 10.9943 119.382 10.8707 120.062 10.8707C121.101 10.8707 121.884 11.1487 122.399 11.7149C122.913 12.281 123.263 13.1046 123.469 14.1855H116.51C116.531 13.8869 116.593 13.5472 116.706 13.1663V13.156ZM133.805 16.6149C133.805 15.9149 133.877 15.2561 134.021 14.659C134.165 14.0516 134.402 13.5266 134.731 13.0737C135.061 12.6207 135.503 12.2604 136.038 12.0031C136.584 11.7457 137.243 11.6119 138.025 11.6119C138.283 11.6119 138.561 11.6325 138.838 11.6531C139.116 11.684 139.363 11.7149 139.559 11.756V7.78245C139.219 7.67951 138.911 7.62804 138.622 7.62804C138.077 7.62804 137.562 7.71039 137.058 7.8648C136.553 8.02951 136.08 8.25598 135.637 8.54422C135.194 8.83246 134.803 9.18247 134.463 9.59424C134.124 10.006 133.846 10.4487 133.65 10.9325H133.588V8.0398H129.522V23.615H133.794V16.5943L133.805 16.6149ZM141.361 22.9047C141.844 23.2856 142.4 23.5635 143.049 23.7488C143.687 23.9341 144.387 24.0165 145.128 24.0165C146.096 24.0165 147.033 23.8724 147.959 23.5944C148.886 23.3165 149.689 22.8223 150.368 22.1223C150.389 22.3797 150.419 22.637 150.471 22.8944C150.522 23.1415 150.584 23.3885 150.667 23.6356H155C154.795 23.3165 154.661 22.8326 154.578 22.1944C154.496 21.5561 154.455 20.8767 154.455 20.1767V12.0751C154.455 11.1281 154.249 10.3766 153.827 9.80012C153.405 9.22364 152.859 8.78099 152.2 8.46187C151.542 8.14275 150.8 7.92657 149.997 7.81333C149.194 7.70009 148.402 7.64862 147.619 7.64862C146.755 7.64862 145.9 7.73098 145.046 7.90598C144.191 8.08098 143.419 8.35893 142.74 8.7604C142.061 9.16188 141.494 9.69718 141.052 10.356C140.609 11.0148 140.362 11.8487 140.3 12.8575H144.583C144.665 12.0134 144.943 11.4163 145.427 11.0457C145.911 10.6854 146.569 10.5001 147.414 10.5001C147.794 10.5001 148.155 10.5207 148.484 10.5722C148.814 10.6237 149.102 10.7266 149.359 10.8707C149.606 11.0251 149.812 11.231 149.956 11.4987C150.111 11.7663 150.183 12.1369 150.183 12.6002C150.203 13.0428 150.069 13.3825 149.792 13.609C149.514 13.8355 149.133 14.0208 148.649 14.134C148.165 14.2575 147.619 14.3399 146.992 14.4016C146.374 14.4634 145.736 14.5458 145.097 14.6384C144.459 14.7414 143.821 14.8752 143.183 15.0399C142.555 15.2149 141.989 15.4722 141.494 15.812C141 16.1517 140.599 16.6149 140.29 17.1811C139.981 17.7576 139.827 18.4782 139.827 19.3635C139.827 20.1664 139.961 20.8561 140.238 21.4429C140.506 22.0297 140.887 22.5032 141.371 22.8841L141.361 22.9047ZM144.315 18.2105C144.459 17.9532 144.644 17.737 144.871 17.562C145.097 17.387 145.375 17.2532 145.684 17.1502C145.993 17.0473 146.312 16.9649 146.631 16.9134C146.971 16.8517 147.311 16.8002 147.65 16.759C147.99 16.7179 148.319 16.6664 148.628 16.6046C148.937 16.5428 149.225 16.4708 149.503 16.3781C149.771 16.2855 149.997 16.162 150.183 15.9973V17.5929C150.183 17.8296 150.152 18.159 150.111 18.5605C150.059 18.962 149.925 19.3635 149.699 19.7547C149.483 20.1458 149.133 20.4855 148.669 20.7635C148.206 21.0414 147.558 21.1856 146.714 21.1856C146.374 21.1856 146.044 21.1547 145.715 21.0929C145.396 21.0311 145.108 20.9282 144.871 20.7738C144.634 20.6194 144.439 20.4135 144.294 20.1561C144.15 19.8988 144.078 19.5694 144.078 19.1885C144.078 18.787 144.15 18.4576 144.294 18.1899L144.315 18.2105ZM82.426 45.8814V34.3107H79.8833V45.8814H82.426ZM86.554 41.4961C86.554 40.6417 86.6981 40.0343 86.9761 39.6534C87.254 39.2828 87.707 39.0975 88.3349 39.0975C88.8805 39.0975 89.2717 39.2725 89.4879 39.6123C89.704 39.952 89.807 40.4667 89.807 41.1564V45.8917H92.1026V40.7446C92.1026 40.2299 92.0614 39.7564 91.9688 39.324C91.8761 38.9019 91.7217 38.5314 91.4952 38.2431C91.2688 37.9446 90.9599 37.7181 90.5688 37.5431C90.1776 37.3784 89.6732 37.296 89.0555 37.296C88.5717 37.296 88.0981 37.4093 87.6349 37.6255C87.1717 37.8519 86.7908 38.2019 86.5025 38.6858H86.4511V37.5225H84.2687V45.902H86.5643V41.5167L86.554 41.4961ZM98.238 44.3373C98.0939 44.4197 97.9291 44.4814 97.7541 44.5123C97.5791 44.5535 97.4041 44.5741 97.2394 44.5741C97.013 44.5741 96.7968 44.5432 96.5806 44.4917C96.3644 44.4403 96.1791 44.3579 96.0247 44.2447C95.8703 44.1314 95.7262 43.9873 95.6232 43.8123C95.5203 43.6373 95.4688 43.4211 95.4688 43.1741H93.2864C93.307 43.7402 93.4306 44.2035 93.6673 44.5741C93.9041 44.9447 94.1923 45.2432 94.5629 45.4697C94.9232 45.6962 95.335 45.8609 95.7982 45.9535C96.2615 46.0462 96.735 46.0976 97.2291 46.0976C97.7233 46.0976 98.1762 46.0564 98.6292 45.9638C99.0924 45.8712 99.4939 45.7167 99.8542 45.4903C100.214 45.2638 100.503 44.9653 100.719 44.5947C100.935 44.2241 101.048 43.7608 101.048 43.2049C101.048 42.8138 100.976 42.4946 100.822 42.227C100.667 41.9593 100.472 41.7432 100.225 41.5579C99.9777 41.3829 99.6895 41.2387 99.3703 41.1255C99.0512 41.0123 98.7218 40.9299 98.3924 40.8476C98.0733 40.7755 97.7541 40.7034 97.435 40.6417C97.1262 40.5799 96.838 40.5079 96.6012 40.4255C96.3541 40.3431 96.1585 40.2402 96.0144 40.1064C95.86 39.9726 95.7879 39.8078 95.7879 39.602C95.7879 39.427 95.8291 39.2931 95.9218 39.1902C96.0041 39.0872 96.1174 39.0049 96.2409 38.9534C96.3644 38.9019 96.4982 38.8608 96.6527 38.8505C96.8071 38.8299 96.9409 38.8299 97.0747 38.8299C97.4865 38.8299 97.8365 38.9122 98.1453 39.0667C98.4439 39.2211 98.6189 39.5196 98.6497 39.9623H100.832C100.791 39.4475 100.657 39.0152 100.431 38.6755C100.204 38.3358 99.9365 38.0578 99.5968 37.8622C99.2571 37.6563 98.8762 37.5122 98.4542 37.4299C98.0218 37.3475 97.5894 37.296 97.1365 37.296C96.6835 37.296 96.2409 37.3372 95.8085 37.4196C95.3762 37.5019 94.985 37.646 94.6453 37.8416C94.2953 38.0372 94.0173 38.3152 93.8114 38.6549C93.6056 39.0049 93.4923 39.4475 93.4923 39.9828C93.4923 40.3534 93.5644 40.6623 93.7188 40.9093C93.8732 41.1667 94.0688 41.3726 94.3159 41.5373C94.5629 41.702 94.8512 41.8358 95.1703 41.9388C95.4894 42.0417 95.8188 42.1343 96.1482 42.2064C96.9718 42.3814 97.61 42.5564 98.0733 42.7211C98.5365 42.8961 98.763 43.1535 98.763 43.5035C98.763 43.7094 98.7115 43.8741 98.6189 44.0182C98.5262 44.152 98.4027 44.2653 98.2586 44.3476L98.238 44.3373ZM106.834 39.0461V37.5122H105.145V35.0004H102.85V37.5122H101.46V39.0461H102.85V43.9873C102.85 44.4094 102.922 44.7491 103.056 45.0064C103.2 45.2638 103.385 45.4697 103.632 45.6035C103.879 45.7476 104.157 45.8403 104.476 45.8917C104.795 45.9432 105.135 45.9638 105.485 45.9638C105.712 45.9638 105.948 45.9638 106.185 45.9432C106.422 45.9329 106.638 45.9123 106.834 45.8814V44.1005C106.731 44.1211 106.607 44.1417 106.494 44.152C106.37 44.1623 106.247 44.1726 106.123 44.1726C105.732 44.1726 105.475 44.1108 105.341 43.977C105.207 43.8432 105.145 43.5858 105.145 43.1946V39.0461H106.834ZM107.843 45.8814H110.138V37.5019H107.843V45.8814ZM110.138 34.3107H107.843V36.2049H110.138V34.3107ZM112.403 43.9873C112.403 44.4094 112.475 44.7491 112.609 45.0064C112.753 45.2638 112.938 45.4697 113.185 45.6035C113.432 45.7476 113.71 45.8403 114.029 45.8917C114.348 45.9432 114.688 45.9638 115.038 45.9638C115.265 45.9638 115.501 45.9638 115.738 45.9432C115.975 45.9329 116.191 45.9123 116.387 45.8814V44.1005C116.284 44.1211 116.16 44.1417 116.047 44.152C115.923 44.1623 115.8 44.1726 115.676 44.1726C115.285 44.1726 115.028 44.1108 114.894 43.977C114.76 43.8432 114.698 43.5858 114.698 43.1946V39.0461H116.387V37.5122H114.698V35.0004H112.403V37.5122H111.013V39.0461H112.403V43.9873ZM125.188 45.8814V37.5019H122.893V41.8873C122.893 42.7417 122.749 43.3491 122.471 43.7299C122.193 44.1005 121.74 44.2858 121.112 44.2858C120.556 44.2858 120.175 44.1108 119.959 43.7711C119.743 43.4314 119.64 42.9167 119.64 42.227V37.4916H117.344V42.6388C117.344 43.1535 117.385 43.627 117.478 44.0594C117.571 44.4917 117.725 44.852 117.951 45.1403C118.178 45.4388 118.487 45.6653 118.888 45.83C119.279 45.9947 119.784 46.077 120.401 46.077C120.885 46.077 121.359 45.9638 121.822 45.7579C122.285 45.5417 122.666 45.1917 122.954 44.7079H123.006V45.8712H125.188V45.8814ZM127.391 34.9901V37.5019H126.002V39.0358H127.391V43.977C127.391 44.3991 127.463 44.7388 127.597 44.9961C127.741 45.2535 127.927 45.4594 128.174 45.5932C128.421 45.7373 128.699 45.83 129.018 45.8814C129.337 45.9329 129.677 45.9535 130.027 45.9535C130.253 45.9535 130.49 45.9535 130.727 45.9329C130.963 45.9226 131.18 45.902 131.375 45.8712V44.0903C131.272 44.1108 131.149 44.1314 131.035 44.1417C130.912 44.152 130.788 44.1623 130.665 44.1623C130.274 44.1623 130.016 44.1005 129.882 43.9667C129.749 43.8329 129.687 43.5755 129.687 43.1844V39.0358H131.375V37.5019H129.687V34.9901H127.391ZM140.094 40.3843C139.94 39.7873 139.703 39.2622 139.353 38.799C139.013 38.3358 138.581 37.9652 138.046 37.6872C137.511 37.4093 136.893 37.2755 136.183 37.2755C135.544 37.2755 134.968 37.3887 134.443 37.6152C133.918 37.8416 133.465 38.1505 133.094 38.5519C132.713 38.9431 132.425 39.4167 132.219 39.952C132.013 40.4873 131.91 41.074 131.91 41.702C131.91 42.3299 132.013 42.9476 132.209 43.4829C132.405 44.0182 132.693 44.4917 133.063 44.8726C133.434 45.2638 133.877 45.5623 134.412 45.7682C134.937 45.9741 135.534 46.0873 136.193 46.0873C137.14 46.0873 137.953 45.8712 138.622 45.4388C139.291 45.0064 139.786 44.2858 140.115 43.2873H138.087C138.015 43.5447 137.809 43.7917 137.469 44.0285C137.13 44.2653 136.738 44.3785 136.265 44.3785C135.616 44.3785 135.122 44.2138 134.772 43.8741C134.422 43.5344 134.237 42.9991 134.206 42.2579H140.249C140.29 41.6093 140.238 40.9917 140.084 40.3946L140.094 40.3843ZM134.216 40.7858C134.227 40.6211 134.258 40.4358 134.319 40.2402C134.381 40.0343 134.484 39.8387 134.628 39.6534C134.772 39.4681 134.968 39.3137 135.215 39.1902C135.462 39.0667 135.76 39.0049 136.131 39.0049C136.687 39.0049 137.109 39.1593 137.387 39.4578C137.665 39.7564 137.85 40.199 137.963 40.7858H134.216ZM80.1407 63.6905H82.4363V56.8551H84.0216V55.3213H82.4363V54.8169C82.4363 54.4668 82.4981 54.2301 82.6422 54.0757C82.776 53.9315 83.0025 53.8595 83.3113 53.8595C83.5996 53.8595 83.8878 53.8801 84.1554 53.911V52.1918C83.9599 52.1918 83.7643 52.1712 83.5584 52.1506C83.3525 52.1301 83.1466 52.1301 82.9407 52.1301C82.004 52.1301 81.2936 52.3668 80.8304 52.8404C80.3672 53.3139 80.1304 53.9213 80.1304 54.6727V55.3213H78.751V56.8551H80.1304V63.6905H80.1407ZM92.9673 57.6889C92.7614 57.1434 92.4732 56.6801 92.0923 56.2992C91.7114 55.9183 91.2585 55.6198 90.7232 55.4036C90.1879 55.1977 89.5908 55.0845 88.932 55.0845C88.2731 55.0845 87.6761 55.1874 87.1511 55.4036C86.6261 55.6095 86.1628 55.908 85.7922 56.2992C85.4113 56.6801 85.1231 57.1434 84.9172 57.6889C84.7113 58.2345 84.6084 58.8419 84.6084 59.511C84.6084 60.1802 84.7113 60.7875 84.9172 61.3228C85.1231 61.8581 85.4113 62.3214 85.7922 62.7125C86.1731 63.0934 86.6261 63.392 87.1511 63.5978C87.6761 63.8037 88.2731 63.9067 88.932 63.9067C89.5908 63.9067 90.1879 63.8037 90.7232 63.5978C91.2585 63.392 91.7114 63.1037 92.0923 62.7125C92.4732 62.3316 92.7614 61.8684 92.9673 61.3228C93.1732 60.7875 93.2761 60.1802 93.2761 59.511C93.2761 58.8419 93.1732 58.2345 92.9673 57.6889ZM90.8776 60.489C90.8158 60.8081 90.7026 61.0963 90.5482 61.3434C90.3938 61.6008 90.1776 61.7963 89.9202 61.9508C89.6526 62.1052 89.3335 62.1772 88.9423 62.1772C88.5511 62.1772 88.232 62.1052 87.9746 61.9508C87.7173 61.7963 87.5114 61.6008 87.3467 61.3434C87.1923 61.086 87.079 60.8081 87.0172 60.489C86.9555 60.1699 86.9246 59.8404 86.9246 59.511C86.9246 59.1816 86.9555 58.8419 87.0172 58.5228C87.079 58.1934 87.1923 57.9154 87.3467 57.6684C87.5011 57.4213 87.707 57.2154 87.9746 57.061C88.232 56.9066 88.5614 56.8242 88.9423 56.8242C89.3232 56.8242 89.6629 56.9066 89.9202 57.061C90.1879 57.2154 90.3938 57.4213 90.5482 57.6684C90.7026 57.9154 90.8158 58.2037 90.8776 58.5228C90.9394 58.8419 90.9702 59.1713 90.9702 59.511C90.9702 59.8507 90.9394 60.1699 90.8776 60.489ZM99.6071 57.2463C99.7615 57.2669 99.8851 57.2772 99.9983 57.3081V55.1669C99.813 55.1154 99.6483 55.0845 99.4939 55.0845C99.2056 55.0845 98.9174 55.1257 98.6497 55.2183C98.3821 55.3007 98.1247 55.4242 97.888 55.5786C97.6512 55.733 97.435 55.9286 97.26 56.1448C97.0747 56.3713 96.9306 56.6081 96.8277 56.8654H96.7968V55.311H94.6144V63.6905H96.91V59.9125C96.91 59.5316 96.9512 59.1816 97.0233 58.8625C97.0953 58.5434 97.2291 58.2551 97.4041 58.0081C97.5791 57.761 97.8159 57.5757 98.1041 57.4316C98.3924 57.2875 98.7527 57.2257 99.1747 57.2257C99.3189 57.2257 99.463 57.2257 99.6071 57.2463ZM115.419 63.6905L111.095 52.1198H108.491L104.116 63.6905H106.679L107.585 61.1169H111.909L112.784 63.6905H115.419ZM108.244 59.2228L109.747 54.9816H109.778L111.24 59.2228H108.244ZM121.884 56.3404H121.853C121.596 55.9286 121.235 55.6198 120.793 55.4036C120.34 55.1977 119.876 55.0845 119.372 55.0845C118.754 55.0845 118.219 55.208 117.756 55.4448C117.293 55.6919 116.901 56.011 116.603 56.4125C116.294 56.8139 116.068 57.2772 115.903 57.8022C115.748 58.3272 115.666 58.8728 115.666 59.4287C115.666 59.9846 115.748 60.5713 115.903 61.1169C116.057 61.6522 116.294 62.1361 116.603 62.5478C116.912 62.9596 117.303 63.289 117.776 63.5361C118.25 63.7831 118.806 63.8964 119.424 63.8964C119.969 63.8964 120.474 63.7934 120.906 63.5978C121.349 63.4022 121.699 63.0728 121.966 62.6199H121.997V63.6905H124.179V52.1198H121.884V56.3301V56.3404ZM121.863 60.489C121.801 60.8081 121.688 61.1066 121.544 61.3537C121.39 61.611 121.194 61.8066 120.937 61.9611C120.679 62.1155 120.371 62.1875 119.99 62.1875C119.629 62.1875 119.331 62.1052 119.074 61.9508C118.816 61.7963 118.61 61.5905 118.446 61.3331C118.281 61.0758 118.157 60.7875 118.085 60.4684C118.013 60.1493 117.972 59.8199 117.972 59.5007C117.972 59.161 118.003 58.8213 118.075 58.5022C118.147 58.1831 118.26 57.9051 118.415 57.6478C118.569 57.4007 118.775 57.1948 119.043 57.0507C119.3 56.8963 119.619 56.8242 120 56.8242C120.381 56.8242 120.69 56.8963 120.937 57.0507C121.184 57.2051 121.39 57.4007 121.544 57.6375C121.699 57.8845 121.812 58.1625 121.874 58.4816C121.935 58.8007 121.966 59.1301 121.966 59.4801C121.966 59.8301 121.935 60.1596 121.874 60.489H121.863ZM130.387 63.7008L133.218 55.3213H130.932L129.162 61.0346H129.131L127.371 55.3213H124.952L127.824 63.7008H130.387ZM141.597 62.9184C141.556 62.5684 141.536 62.2081 141.536 61.8375V57.4831C141.536 56.9786 141.422 56.5669 141.196 56.258C140.969 55.9492 140.681 55.7125 140.321 55.5374C139.961 55.3624 139.569 55.2492 139.137 55.1874C138.705 55.1257 138.283 55.0948 137.861 55.0948C137.397 55.0948 136.934 55.136 136.471 55.2286C136.008 55.3213 135.596 55.4757 135.235 55.6919C134.865 55.908 134.566 56.1963 134.33 56.5463C134.093 56.9066 133.959 57.3492 133.928 57.8948H136.224C136.265 57.4419 136.419 57.1125 136.677 56.9272C136.934 56.7316 137.294 56.6389 137.747 56.6389C137.953 56.6389 138.149 56.6492 138.324 56.6801C138.499 56.711 138.653 56.7625 138.797 56.8448C138.931 56.9272 139.044 57.0404 139.116 57.1845C139.199 57.3286 139.24 57.5242 139.24 57.7713C139.25 58.0081 139.178 58.1934 139.034 58.3169C138.89 58.4404 138.674 58.5331 138.416 58.6051C138.159 58.6669 137.861 58.7184 137.521 58.7493C137.181 58.7801 136.841 58.8213 136.502 58.8831C136.162 58.9448 135.812 59.0066 135.472 59.0993C135.133 59.1919 134.834 59.3257 134.566 59.511C134.299 59.6963 134.083 59.9434 133.918 60.2522C133.753 60.561 133.671 60.9522 133.671 61.4258C133.671 61.8581 133.743 62.2287 133.887 62.5478C134.031 62.8567 134.237 63.1243 134.494 63.3302C134.752 63.5361 135.06 63.6905 135.4 63.7831C135.75 63.8758 136.121 63.9273 136.522 63.9273C137.037 63.9273 137.552 63.8552 138.046 63.7008C138.54 63.5464 138.972 63.289 139.343 62.9081C139.353 63.0522 139.374 63.1861 139.405 63.3199C139.436 63.4537 139.466 63.5876 139.508 63.7214H141.844C141.741 63.5464 141.659 63.289 141.618 62.939L141.597 62.9184ZM139.23 60.4581C139.23 60.5919 139.219 60.7566 139.188 60.9728C139.158 61.189 139.086 61.4052 138.972 61.611C138.849 61.8169 138.674 62.0022 138.416 62.1566C138.169 62.3111 137.819 62.3831 137.366 62.3831C137.181 62.3831 137.006 62.3625 136.831 62.3316C136.656 62.3008 136.512 62.239 136.378 62.1566C136.244 62.0743 136.141 61.9611 136.069 61.8272C135.997 61.6831 135.956 61.5184 135.956 61.3125C135.956 61.0963 135.997 60.9213 136.069 60.7772C136.141 60.6331 136.244 60.5199 136.368 60.4272C136.491 60.3346 136.636 60.2625 136.8 60.211C136.965 60.1596 137.14 60.1184 137.315 60.0772C137.5 60.0463 137.686 60.0154 137.861 59.9949C138.046 59.9743 138.221 59.9434 138.386 59.9125C138.55 59.8816 138.705 59.8404 138.859 59.789C139.003 59.7375 139.127 59.6757 139.219 59.5831V60.4375L139.23 60.4581ZM150.389 56.0419C150.162 55.7433 149.853 55.5169 149.462 55.3419C149.071 55.1771 148.567 55.0948 147.949 55.0948C147.465 55.0948 146.992 55.208 146.528 55.4242C146.065 55.6507 145.684 56.0007 145.396 56.4845H145.344V55.3213H143.162V63.7008H145.458V59.3154C145.458 58.461 145.602 57.8537 145.88 57.4728C146.158 57.1022 146.611 56.9169 147.239 56.9169C147.794 56.9169 148.175 57.0919 148.392 57.4316C148.608 57.7713 148.711 58.286 148.711 58.9757V63.7008H151.006V58.5537C151.006 58.0389 150.955 57.5654 150.872 57.1331C150.78 56.711 150.625 56.3404 150.399 56.0522L150.389 56.0419ZM156.565 63.9067C157.677 63.9067 158.593 63.6184 159.303 63.0317C160.014 62.4449 160.446 61.6008 160.6 60.489H158.377C158.305 61.0037 158.12 61.4155 157.821 61.7243C157.523 62.0331 157.1 62.1875 156.545 62.1875C156.184 62.1875 155.886 62.1052 155.639 61.9405C155.392 61.7758 155.196 61.5699 155.052 61.3125C154.908 61.0552 154.805 60.7772 154.733 60.4581C154.671 60.1493 154.64 59.8404 154.64 59.5316C154.64 59.2228 154.671 58.9037 154.733 58.5845C154.795 58.2654 154.908 57.9772 155.062 57.7095C155.217 57.4419 155.423 57.2257 155.67 57.061C155.917 56.8963 156.225 56.8139 156.596 56.8139C157.584 56.8139 158.15 57.2978 158.295 58.2551H160.549C160.518 57.7198 160.384 57.2463 160.158 56.8551C159.931 56.4639 159.633 56.1345 159.273 55.8669C158.912 55.5992 158.5 55.4036 158.037 55.2801C157.574 55.1463 157.1 55.0845 156.606 55.0845C155.927 55.0845 155.32 55.1977 154.795 55.4242C154.27 55.6507 153.817 55.9698 153.446 56.3713C153.075 56.7728 152.797 57.2566 152.612 57.8125C152.427 58.3684 152.324 58.9654 152.324 59.614C152.324 60.2625 152.427 60.8184 152.633 61.3434C152.839 61.8684 153.127 62.3214 153.487 62.6919C153.858 63.0728 154.3 63.3611 154.825 63.5773C155.35 63.7831 155.927 63.8964 156.555 63.8964L156.565 63.9067ZM168.033 63.2581C168.702 62.8258 169.196 62.1052 169.526 61.1066H167.498C167.426 61.364 167.22 61.6111 166.88 61.8478C166.54 62.0846 166.149 62.1978 165.676 62.1978C165.027 62.1978 164.533 62.0331 164.183 61.6934C163.833 61.364 163.648 60.8184 163.617 60.0772H169.659C169.701 59.4287 169.649 58.811 169.495 58.214C169.34 57.6169 169.093 57.0919 168.754 56.6286C168.414 56.1654 167.981 55.7948 167.446 55.5169C166.921 55.2389 166.293 55.1051 165.583 55.1051C164.945 55.1051 164.368 55.2183 163.843 55.4448C163.318 55.6713 162.865 55.9801 162.495 56.3816C162.114 56.7728 161.826 57.2463 161.62 57.7816C161.414 58.3169 161.311 58.9037 161.311 59.5316C161.311 60.1596 161.414 60.7772 161.609 61.3125C161.805 61.8478 162.093 62.3214 162.464 62.7022C162.834 63.0934 163.277 63.392 163.812 63.5978C164.337 63.8037 164.934 63.917 165.593 63.917C166.54 63.917 167.354 63.7008 168.023 63.2684L168.033 63.2581ZM163.73 58.0595C163.792 57.8537 163.895 57.6581 164.039 57.4728C164.183 57.2875 164.378 57.1331 164.626 57.0095C164.873 56.886 165.171 56.8242 165.542 56.8242C166.098 56.8242 166.52 56.9786 166.798 57.2772C167.076 57.5757 167.261 58.0184 167.374 58.6051H163.627C163.637 58.4404 163.668 58.2551 163.73 58.0595ZM172.614 63.5464C173.087 63.7934 173.643 63.9067 174.271 63.9067C174.817 63.9067 175.311 63.8037 175.754 63.6081C176.186 63.4125 176.546 63.0831 176.814 62.6302H176.845V63.7008H179.027V52.1301H176.732V56.3404H176.701C176.443 55.9286 176.083 55.6198 175.64 55.4036C175.187 55.1977 174.724 55.0845 174.22 55.0845C173.602 55.0845 173.067 55.208 172.604 55.4448C172.14 55.6919 171.749 56.011 171.451 56.4125C171.142 56.8139 170.915 57.2772 170.751 57.8022C170.596 58.3272 170.514 58.8728 170.514 59.4287C170.514 59.9846 170.596 60.5713 170.751 61.1169C170.905 61.6522 171.142 62.1361 171.451 62.5478C171.759 62.9596 172.151 63.289 172.624 63.5361L172.614 63.5464ZM172.912 58.5125C172.984 58.1934 173.098 57.9154 173.252 57.6581C173.407 57.411 173.612 57.2051 173.88 57.061C174.137 56.9066 174.457 56.8345 174.837 56.8345C175.218 56.8345 175.527 56.9066 175.774 57.061C176.021 57.2154 176.227 57.411 176.382 57.6478C176.536 57.8948 176.649 58.1728 176.711 58.4919C176.773 58.811 176.804 59.1404 176.804 59.4904C176.804 59.8404 176.773 60.1699 176.711 60.4993C176.649 60.8184 176.536 61.1169 176.392 61.364C176.237 61.6213 176.042 61.8169 175.785 61.9714C175.527 62.1258 175.218 62.1978 174.837 62.1978C174.477 62.1978 174.179 62.1155 173.921 61.9611C173.664 61.8066 173.458 61.6008 173.293 61.3434C173.129 61.086 173.005 60.7978 172.933 60.4787C172.861 60.1596 172.82 59.8302 172.82 59.511C172.82 59.1713 172.851 58.8316 172.923 58.5125H172.912ZM192.801 57.6786C192.42 57.4316 192.039 57.2463 191.658 57.1331C191.277 57.0198 190.979 56.9375 190.763 56.8963C190.042 56.711 189.455 56.5669 189.002 56.4433C188.549 56.3198 188.199 56.2066 187.952 56.083C187.695 55.9595 187.53 55.836 187.438 55.6919C187.355 55.5477 187.304 55.3727 187.304 55.136C187.304 54.8889 187.355 54.683 187.468 54.5183C187.571 54.3536 187.716 54.2198 187.88 54.1168C188.045 54.0139 188.23 53.9315 188.436 53.8904C188.642 53.8492 188.848 53.8286 189.054 53.8286C189.363 53.8286 189.651 53.8595 189.919 53.911C190.186 53.9624 190.413 54.0551 190.619 54.1889C190.824 54.3227 190.989 54.4977 191.113 54.7242C191.236 54.9507 191.308 55.2389 191.329 55.5786H193.789C193.789 54.9095 193.666 54.3433 193.408 53.8698C193.151 53.3962 192.811 53.0154 192.379 52.7065C191.946 52.408 191.452 52.1815 190.896 52.0477C190.341 51.9139 189.764 51.8418 189.157 51.8418C188.642 51.8418 188.117 51.9139 187.602 52.0477C187.088 52.1918 186.624 52.408 186.213 52.6962C185.801 52.9845 185.471 53.3551 185.214 53.7874C184.957 54.2301 184.833 54.7448 184.833 55.3316C184.833 55.8566 184.936 56.3095 185.132 56.6801C185.327 57.0507 185.595 57.3595 185.914 57.6066C186.233 57.8537 186.604 58.0595 187.016 58.214C187.427 58.3684 187.849 58.5022 188.282 58.6154C188.704 58.739 189.116 58.8419 189.527 58.9448C189.939 59.0375 190.31 59.1507 190.629 59.2846C190.948 59.4184 191.216 59.5728 191.411 59.7684C191.607 59.964 191.71 60.2213 191.71 60.5302C191.71 60.8184 191.638 61.0655 191.483 61.2508C191.329 61.4361 191.144 61.5905 190.917 61.6934C190.691 61.8066 190.444 61.8787 190.186 61.9096C189.929 61.9508 189.682 61.9611 189.455 61.9611C189.116 61.9611 188.796 61.9199 188.488 61.8375C188.179 61.7552 187.901 61.6316 187.674 61.4669C187.438 61.3022 187.252 61.0758 187.118 60.8081C186.974 60.5405 186.902 60.211 186.902 59.8199H184.442C184.432 60.5302 184.566 61.1478 184.833 61.6625C185.101 62.1772 185.471 62.6096 185.924 62.939C186.388 63.2684 186.913 63.5155 187.51 63.6802C188.107 63.8346 188.724 63.917 189.363 63.917C190.155 63.917 190.845 63.8243 191.442 63.639C192.039 63.4537 192.544 63.1964 192.945 62.867C193.346 62.5375 193.655 62.1464 193.861 61.6934C194.067 61.2405 194.17 60.7463 194.17 60.2213C194.17 59.5728 194.036 59.0375 193.758 58.6257C193.48 58.214 193.151 57.8742 192.78 57.6272L192.801 57.6786ZM198.205 52.8198H195.91V55.3316H194.52V56.8654H195.91V61.8066C195.91 62.2287 195.982 62.5684 196.116 62.8258C196.26 63.0831 196.445 63.289 196.692 63.4228C196.939 63.567 197.217 63.6596 197.536 63.7008C197.855 63.7523 198.195 63.7728 198.545 63.7728C198.772 63.7728 199.008 63.7728 199.245 63.7523C199.482 63.742 199.698 63.7214 199.894 63.6905V61.9096C199.791 61.9302 199.677 61.9508 199.554 61.9611C199.43 61.9714 199.307 61.9816 199.183 61.9816C198.792 61.9816 198.535 61.9199 198.401 61.7861C198.267 61.6522 198.205 61.3949 198.205 61.0037V56.8551H199.894V55.3213H198.205V52.8095V52.8198ZM206.389 59.7169C206.389 60.5713 206.245 61.1787 205.967 61.5596C205.689 61.9302 205.236 62.1155 204.608 62.1155C204.053 62.1155 203.672 61.9405 203.455 61.6008C203.239 61.261 203.126 60.7463 203.126 60.0566V55.3213H200.83V60.4684C200.83 60.9831 200.872 61.4566 200.964 61.889C201.057 62.3214 201.211 62.6817 201.438 62.9699C201.664 63.2684 201.973 63.4949 202.375 63.6596C202.766 63.8243 203.27 63.9067 203.888 63.9067C204.372 63.9067 204.845 63.7934 205.308 63.5875C205.772 63.3714 206.153 63.0214 206.441 62.5375H206.492V63.7008H208.675V55.3213H206.379V59.7066L206.389 59.7169ZM216.138 56.3507H216.107C215.85 55.9389 215.489 55.6301 215.047 55.4139C214.604 55.208 214.131 55.0948 213.626 55.0948C213.008 55.0948 212.473 55.2183 212.01 55.4551C211.547 55.7022 211.156 56.0213 210.857 56.4228C210.548 56.8242 210.322 57.2875 210.157 57.8125C210.003 58.3375 209.92 58.8831 209.92 59.439C209.92 59.9949 210.003 60.5816 210.157 61.1272C210.311 61.6625 210.548 62.1464 210.857 62.5581C211.166 62.9699 211.557 63.2993 212.031 63.5464C212.504 63.7934 213.06 63.9067 213.688 63.9067C214.234 63.9067 214.738 63.8037 215.17 63.6081C215.603 63.4125 215.963 63.0831 216.231 62.6302H216.261V63.7008H218.444V52.1301H216.148V56.3404L216.138 56.3507ZM216.117 60.4993C216.056 60.8184 215.942 61.1169 215.798 61.364C215.644 61.6213 215.448 61.8169 215.191 61.9714C214.934 62.1258 214.625 62.1978 214.244 62.1978C213.883 62.1978 213.585 62.1155 213.328 61.9611C213.07 61.8066 212.864 61.6008 212.7 61.3434C212.535 61.086 212.411 60.7978 212.339 60.4787C212.267 60.1596 212.226 59.8302 212.226 59.511C212.226 59.1713 212.257 58.8316 212.329 58.5125C212.401 58.1934 212.514 57.9154 212.669 57.6581C212.823 57.411 213.029 57.2051 213.297 57.061C213.554 56.9066 213.873 56.8345 214.254 56.8345C214.635 56.8345 214.944 56.9066 215.191 57.061C215.438 57.2154 215.644 57.411 215.798 57.6478C215.953 57.8948 216.066 58.1728 216.128 58.4919C216.189 58.811 216.22 59.1404 216.22 59.4904C216.22 59.8404 216.189 60.1699 216.128 60.4993H216.117ZM225.259 55.3316L223.426 61.0655H223.395L221.501 55.3316H219.051L221.985 63.1861C222.047 63.3508 222.078 63.5258 222.078 63.7008C222.078 63.9478 222.006 64.1743 221.862 64.3802C221.717 64.5861 221.491 64.6993 221.192 64.7405C220.966 64.7508 220.739 64.7405 220.513 64.7199C220.287 64.6993 220.06 64.6787 219.844 64.6581V66.5523C220.081 66.5729 220.317 66.5935 220.544 66.6141C220.781 66.6346 221.007 66.6346 221.244 66.6346C222.037 66.6346 222.644 66.4905 223.087 66.2023C223.529 65.914 223.879 65.4199 224.126 64.7405L227.626 55.3316H225.248H225.259ZM58.2963 44.9447H0.041177V56.2477H58.2963V44.9447ZM58.2963 84.8966V73.6141C44.7182 73.6141 38.099 71.8538 31.0886 69.9906C23.4709 67.9626 15.5855 65.8626 0.041177 65.8626V77.1451C13.6193 77.1451 20.2385 78.9054 27.2489 80.7686C34.8666 82.7966 42.752 84.8966 58.2963 84.8966ZM124.21 3.16033V0C121.956 0 120.824 0.586772 119.722 1.15296C118.713 1.67796 117.746 2.17209 115.79 2.17209V5.33242C118.044 5.33242 119.176 4.74565 120.278 4.17946C121.297 3.65446 122.254 3.16033 124.221 3.16033H124.21ZM29.1739 90.8261C13.0634 90.8261 0 103.89 0 120H11.2825C11.2825 110.138 19.312 102.109 29.1739 102.109C39.0358 102.109 47.0653 110.138 47.0653 120H58.3478C58.3478 103.89 45.2844 90.8261 29.1739 90.8261Z" fill="black"/>
</svg>
