<svg width="50" height="64" viewBox="0 0 50 64" fill="none" xmlns="http://www.w3.org/2000/svg">
<path d="M49.9559 0H0.0352858V9.63818H49.9559V0ZM49.9559 34.0672V24.4466C38.3204 24.4466 32.6482 22.9455 26.6408 21.3567C20.1129 19.6275 13.3557 17.8368 0.0352858 17.8368V27.4574C11.6708 27.4574 17.343 28.9584 23.3504 30.5472C29.8783 32.2765 36.6355 34.0672 49.9559 34.0672ZM25 39.1233C11.1944 39.1233 0 50.2625 0 64H9.66831C9.66831 55.5907 16.549 48.7439 25 48.7439C33.451 48.7439 40.3317 55.5907 40.3317 64H50C50 50.2625 38.8056 39.1233 25 39.1233Z" fill="black"/>
</svg>
